<?xml version="1.0" encoding="utf-8"?>
<!-- Generator: Adobe Illustrator 16.0.0, SVG Export Plug-In . SVG Version: 6.00 Build 0)  -->
<!DOCTYPE svg PUBLIC "-//W3C//DTD SVG 1.1//EN" "http://www.w3.org/Graphics/SVG/1.1/DTD/svg11.dtd">
<svg version="1.1" xmlns="http://www.w3.org/2000/svg" xmlns:xlink="http://www.w3.org/1999/xlink" x="0px" y="0px"
	 width="265.325px" height="239.5px" viewBox="113.176 283 265.325 239.5" enable-background="new 113.176 283 265.325 239.5"
	 xml:space="preserve">
<g id="Layer_1" display="none">
</g>
<g id="Layer_8" display="none">
	<path display="inline" fill="#CC9999" d="M170.972,339.01c-7.946,8.67-21.418,9.259-30.091,1.314l-17.174-15.736
		c-8.671-7.944-9.26-21.418-1.314-30.089l1.948-2.126c7.946-8.671,21.417-9.261,30.09-1.315l17.173,15.736
		c8.673,7.944,9.261,21.418,1.316,30.09L170.972,339.01z"/>
	
		<rect x="132.408" y="362.116" transform="matrix(0.7373 0.6756 -0.6756 0.7373 318.6044 -49.6472)" display="inline" fill="#99CCCC" width="181.466" height="45.477"/>
	<polyline display="inline" fill="#666666" points="350.676,506.068 305.401,429.385 274.678,462.914 	"/>
	
		<rect x="132.409" y="374.651" transform="matrix(0.7373 0.6756 -0.6756 0.7373 318.6094 -49.6464)" display="inline" fill="#6699CC" width="181.466" height="20.409"/>
</g>
<g id="Layer_4_copy">
	<path fill="#CC3333" d="M308.5,497.697c0,6.443-5.225,11.668-11.668,11.668l0,0c-6.443,0-11.666-5.225-11.666-11.668V310.031
		c0-6.443,5.223-11.667,11.666-11.667l0,0c6.443,0,11.668,5.224,11.668,11.667V497.697z"/>
	<rect x="249.833" y="388.365" fill="#660000" width="58.667" height="28.667"/>
	<ellipse fill="#CC9900" cx="263.666" cy="401.615" rx="4.5" ry="4.666"/>
</g>
<g id="Layer_4_copy_2">
	<path fill="#333333" d="M303.938,497.635c0,6.443-5.225,11.668-11.668,11.668l0,0c-6.443,0-11.666-5.225-11.666-11.668V309.969
		c0-6.443,5.223-11.667,11.666-11.667l0,0c6.443,0,11.668,5.224,11.668,11.667V497.635z"/>
	<rect x="249.833" y="388.365" fill="#660000" width="58.667" height="28.667"/>
	<ellipse fill="#CC9900" cx="263.666" cy="401.615" rx="4.5" ry="4.666"/>
</g>
<g id="Layer_4">
	<rect x="138.167" y="298.365" fill="#CC3333" width="150.333" height="211"/>
	<path fill="#CC3333" d="M299.167,497.697c0,6.443-5.225,11.668-11.668,11.668l0,0c-6.443,0-11.666-5.225-11.666-11.668V310.031
		c0-6.443,5.223-11.667,11.666-11.667l0,0c6.443,0,11.668,5.224,11.668,11.667V497.697z"/>
	<rect x="240.5" y="388.365" fill="#660000" width="58.667" height="28.667"/>
	<ellipse fill="#CC9900" cx="254.333" cy="401.615" rx="4.5" ry="4.666"/>
	<rect x="143.5" y="298.365" fill="#660000" width="4" height="211"/>
</g>
<g id="Layer_7">
</g>
</svg>
