<?xml version="1.0" encoding="utf-8"?>
<!-- Generator: Adobe Illustrator 16.0.0, SVG Export Plug-In . SVG Version: 6.00 Build 0)  -->
<!DOCTYPE svg PUBLIC "-//W3C//DTD SVG 1.1//EN" "http://www.w3.org/Graphics/SVG/1.1/DTD/svg11.dtd">
<svg version="1.1" id="Layer_1" xmlns="http://www.w3.org/2000/svg" xmlns:xlink="http://www.w3.org/1999/xlink" x="0px" y="0px"
	 width="229.163px" height="239.5px" viewBox="108 283 229.163 239.5" enable-background="new 108 283 229.163 239.5"
	 xml:space="preserve">
<g id="Layer_1_1_" display="none">
</g>
<g id="Layer_8" display="none">
	<path display="inline" fill="#CC9999" d="M170.972,339.01c-7.946,8.67-21.418,9.26-30.091,1.314l-17.174-15.736
		c-8.671-7.943-9.26-21.418-1.314-30.089l1.948-2.126c7.946-8.671,21.417-9.262,30.09-1.314l17.173,15.735
		c8.673,7.944,9.262,21.418,1.316,30.09L170.972,339.01z"/>
	
		<rect x="132.383" y="362.121" transform="matrix(-0.7373 -0.6756 0.6756 -0.7373 127.6146 819.3458)" display="inline" fill="#99CCCC" width="181.47" height="45.478"/>
	<polyline display="inline" fill="#666666" points="350.676,506.068 305.401,429.385 274.678,462.914 	"/>
	
		<rect x="132.388" y="374.658" transform="matrix(-0.7373 -0.6756 0.6756 -0.7373 127.6197 819.353)" display="inline" fill="#6699CC" width="181.471" height="20.408"/>
</g>
<g id="Layer_4_copy">
	<path fill="#CC3333" d="M308.5,497.697c0,6.443-5.226,11.668-11.668,11.668l0,0c-6.443,0-11.666-5.225-11.666-11.668V310.031
		c0-6.443,5.223-11.668,11.666-11.668l0,0c6.442,0,11.668,5.225,11.668,11.668V497.697L308.5,497.697z"/>
	<rect x="249.833" y="388.365" fill="#660000" width="58.668" height="28.666"/>
	<ellipse fill="#CC9900" cx="263.667" cy="401.615" rx="4.5" ry="4.666"/>
</g>
<g id="Layer_4_copy_2">
	<path fill="#333333" d="M303.938,497.635c0,6.443-5.225,11.668-11.668,11.668l0,0c-6.443,0-11.666-5.225-11.666-11.668V309.969
		c0-6.443,5.223-11.666,11.666-11.666l0,0c6.443,0,11.668,5.223,11.668,11.666V497.635L303.938,497.635z"/>
	<rect x="249.833" y="388.365" fill="#660000" width="58.668" height="28.666"/>
	<ellipse fill="#CC9900" cx="263.667" cy="401.615" rx="4.5" ry="4.666"/>
</g>
<g id="Layer_4">
	<rect x="138.167" y="298.365" fill="#CC3333" width="150.334" height="211"/>
	<path fill="#CC3333" d="M299.167,497.697c0,6.443-5.225,11.668-11.668,11.668l0,0c-6.442,0-11.666-5.225-11.666-11.668V310.031
		c0-6.443,5.224-11.668,11.666-11.668l0,0c6.443,0,11.669,5.225,11.669,11.668L299.167,497.697L299.167,497.697z"/>
	<rect x="240.5" y="388.365" fill="#660000" width="58.666" height="28.666"/>
	<ellipse fill="#CC9900" cx="254.333" cy="401.615" rx="4.5" ry="4.666"/>
	<rect x="143.5" y="298.365" fill="#660000" width="4" height="211"/>
</g>
<g id="Layer_7">
</g>
</svg>
